<svg width="48" height="26" viewBox="0 0 48 26" fill="none" xmlns="http://www.w3.org/2000/svg">
<path fill-rule="evenodd" clip-rule="evenodd" d="M16.1746 18.4933L20.7434 23.0621C23.5238 25.8425 28.0316 25.8425 30.812 23.0621C31.7289 22.1452 32.3435 21.0403 32.6556 19.8715L35.8462 23.0621C38.6266 25.8425 43.1344 25.8425 45.9147 23.0621C48.6951 20.2818 48.6951 15.774 45.9147 12.9936L35.8462 2.9251C33.0659 0.144757 28.558 0.144758 25.7777 2.9251C24.8607 3.84206 24.2462 4.94691 23.9341 6.11573L20.7434 2.9251C17.9631 0.144759 13.4553 0.144759 10.6749 2.92511L2.38936 11.2107C-0.796453 14.3965 -0.796453 19.5617 2.38936 22.7475C5.57517 25.9333 10.7404 25.9333 13.9262 22.7475C15.1322 21.5415 15.8817 20.0519 16.1746 18.4933ZM18.2263 5.44223C16.8361 4.05206 14.5822 4.05206 13.192 5.44224C11.8025 6.83181 11.8019 9.0844 13.1903 10.4747L23.2606 20.545C24.6507 21.9352 26.9047 21.9352 28.2948 20.545C29.6843 19.1556 29.685 16.9033 28.297 15.513L18.2263 5.44223ZM11.4091 13.7278L8.15778 10.4765L4.90649 13.7278C3.11085 15.5234 3.11085 18.4347 4.90649 20.2304C6.70213 22.026 9.61344 22.026 11.4091 20.2304C13.2047 18.4347 13.2047 15.5234 11.4091 13.7278ZM28.2919 10.4735C26.9047 9.08313 26.9056 6.83142 28.2948 5.44223C29.685 4.05206 31.9389 4.05206 33.3291 5.44223L43.3976 15.5108C44.7878 16.9009 44.7878 19.1548 43.3976 20.545C42.0074 21.9352 39.7535 21.9352 38.3634 20.545L28.2919 10.4735Z" fill="#DD2590"/>
</svg>
