<svg width="258" height="48" viewBox="0 0 258 48" fill="none" xmlns="http://www.w3.org/2000/svg">
<path fill-rule="evenodd" clip-rule="evenodd" d="M26.6797 2.01388C27.1267 1.78062 27.6611 1.7876 28.1019 2.03247L38.2284 7.65748C38.7046 7.92204 39 8.42403 39 8.96885L38.9993 20.2184C38.9993 20.7772 38.6886 21.2897 38.1932 21.5482L12.3196 35.0478C11.8725 35.2811 11.3381 35.2741 10.8973 35.0291L0.773445 29.4043C0.297359 29.1397 0.00205758 28.638 0.00196257 28.0933L2.29477e-08 16.8436C-9.74903e-05 16.2847 0.310589 15.7721 0.806135 15.5135L26.6797 2.01388ZM3.00016 17.7526L3.00153 25.6188L25.8753 13.6842L25.874 5.81805L3.00016 17.7526ZM28.874 5.89309L28.8753 13.7108L35.9995 17.669L35.9999 9.85139L28.874 5.89309ZM34.3361 20.1768L27.3531 16.297L4.66512 28.1346L11.6481 32.0144L34.3361 20.1768Z" fill="#1570EF"/>
<path opacity="0.5" fill-rule="evenodd" clip-rule="evenodd" d="M12.3203 46.2986C11.8733 46.5319 11.3389 46.5249 10.8981 46.28L0.771626 40.655C0.295353 40.3905 -2.61276e-05 39.8885 8.25229e-06 39.3436L0.000707325 28.0941C0.000741706 27.5353 0.311407 27.0228 0.806841 26.7643L26.6804 13.2647C27.1275 13.0314 27.6619 13.0384 28.1028 13.2834L38.2266 18.9082C38.7026 19.1728 38.9979 19.6745 38.998 20.2192L39 31.4689C39.0001 32.0278 38.6894 32.5404 38.1939 32.799L12.3203 46.2986ZM35.9998 30.5599L35.9985 22.6937L13.1247 34.6282L13.126 42.4944L35.9998 30.5599ZM10.126 42.4194L10.1247 34.6017L3.00055 30.6435L3.00006 38.4611L10.126 42.4194ZM4.66387 28.1357L11.6469 32.0155L34.3349 20.1779L27.3519 16.2981L4.66387 28.1357Z" fill="#1570EF"/>
<path d="M67.856 18.72L63.888 19.936C63.664 18.688 62.64 16.736 59.76 16.736C57.616 16.736 56.208 18.112 56.208 19.616C56.208 20.864 57.008 21.856 58.672 22.176L61.84 22.784C65.968 23.584 68.176 26.272 68.176 29.472C68.176 32.96 65.264 36.48 59.984 36.48C53.968 36.48 51.312 32.608 50.96 29.376L55.056 28.288C55.248 30.528 56.816 32.544 60.016 32.544C62.384 32.544 63.696 31.36 63.696 29.76C63.696 28.448 62.704 27.424 60.944 27.072L57.776 26.432C54.16 25.696 51.824 23.36 51.824 19.936C51.824 15.904 55.44 12.832 59.728 12.832C65.232 12.832 67.344 16.16 67.856 18.72ZM75.7087 15.552V20.256H78.8767V24.032H75.7087V30.624C75.7087 32 76.3488 32.448 77.5647 32.448C78.0767 32.448 78.6528 32.384 78.8767 32.32V35.84C78.4928 36 77.7247 36.224 76.4767 36.224C73.4047 36.224 71.4847 34.4 71.4847 31.36V24.032H68.6367V20.256H69.4367C71.1007 20.256 71.8687 19.168 71.8687 17.76V15.552H75.7087ZM80.3458 31.712C80.3458 28.896 82.4258 27.328 85.0498 26.944L88.9218 26.368C89.8178 26.24 90.1058 25.792 90.1058 25.248C90.1058 24.128 89.2418 23.2 87.4498 23.2C85.5938 23.2 84.5698 24.384 84.4418 25.76L80.6658 24.96C80.9218 22.496 83.1938 19.776 87.4178 19.776C92.4098 19.776 94.2658 22.592 94.2658 25.76V33.504C94.2658 34.336 94.3618 35.456 94.4578 36H90.5538C90.4578 35.584 90.3938 34.72 90.3938 34.112C89.5938 35.36 88.0898 36.448 85.7538 36.448C82.3938 36.448 80.3458 34.176 80.3458 31.712ZM86.6498 33.28C88.4418 33.28 90.1058 32.416 90.1058 29.632V28.928L86.5538 29.472C85.4658 29.632 84.6018 30.24 84.6018 31.456C84.6018 32.384 85.2738 33.28 86.6498 33.28ZM104.285 23.712C102.109 23.712 100.285 25.28 100.285 28.128C100.285 30.976 102.141 32.576 104.317 32.576C106.493 32.576 107.581 31.136 107.933 29.92L111.677 31.168C110.973 33.792 108.509 36.48 104.317 36.48C99.6772 36.48 96.0292 32.96 96.0292 28.128C96.0292 23.264 99.6133 19.776 104.189 19.776C108.477 19.776 110.909 22.432 111.581 25.088L107.773 26.368C107.389 25.056 106.397 23.712 104.285 23.712ZM128.791 20.256L122.487 26.88L128.919 36H123.703L119.543 29.984L117.783 31.84V36H113.527V12.832H117.783V26.112L123.223 20.256H128.791ZM132.507 26.336H139.547C139.483 24.768 138.459 23.232 136.027 23.232C133.819 23.232 132.603 24.896 132.507 26.336ZM139.963 30.432L143.515 31.488C142.715 34.208 140.219 36.48 136.347 36.48C132.027 36.48 128.219 33.376 128.219 28.064C128.219 23.04 131.931 19.776 135.963 19.776C140.827 19.776 143.739 22.88 143.739 27.936C143.739 28.544 143.675 29.184 143.675 29.248H132.411C132.507 31.328 134.267 32.832 136.379 32.832C138.363 32.832 139.451 31.84 139.963 30.432ZM160.819 12.832V33.152C160.819 34.208 160.883 35.36 160.947 36H156.883C156.819 35.68 156.723 34.912 156.723 34.176C156.019 35.424 154.419 36.384 152.307 36.384C147.827 36.384 144.627 32.864 144.627 28.096C144.627 23.488 147.731 19.872 152.179 19.872C154.899 19.872 156.179 20.992 156.627 21.824V12.832H160.819ZM148.915 28.096C148.915 30.912 150.579 32.576 152.819 32.576C154.995 32.576 156.691 30.912 156.691 28.064C156.691 25.248 154.995 23.68 152.819 23.68C150.643 23.68 148.915 25.28 148.915 28.096ZM168.412 36H164.156V20.256H168.22V22.176C169.084 20.64 171.1 19.808 172.828 19.808C174.972 19.808 176.7 20.736 177.5 22.432C178.748 20.512 180.412 19.808 182.492 19.808C185.404 19.808 188.188 21.568 188.188 25.792V36H184.06V26.656C184.06 24.96 183.228 23.68 181.276 23.68C179.452 23.68 178.364 25.088 178.364 26.784V36H174.14V26.656C174.14 24.96 173.276 23.68 171.356 23.68C169.5 23.68 168.412 25.056 168.412 26.784V36ZM198.291 32.608C200.371 32.608 202.291 31.104 202.291 28.128C202.291 25.152 200.371 23.648 198.291 23.648C196.211 23.648 194.291 25.152 194.291 28.128C194.291 31.072 196.211 32.608 198.291 32.608ZM198.291 19.776C202.995 19.776 206.547 23.264 206.547 28.128C206.547 32.96 202.995 36.48 198.291 36.48C193.587 36.48 190.035 32.96 190.035 28.128C190.035 23.264 193.587 19.776 198.291 19.776ZM212.883 26.944V36H208.627V20.256H212.755V22.208C213.715 20.576 215.603 19.84 217.299 19.84C221.203 19.84 222.995 22.624 222.995 26.08V36H218.739V26.816C218.739 25.056 217.875 23.68 215.827 23.68C213.971 23.68 212.883 25.12 212.883 26.944ZM229.138 26.336H236.178C236.114 24.768 235.09 23.232 232.658 23.232C230.45 23.232 229.234 24.896 229.138 26.336ZM236.594 30.432L240.146 31.488C239.346 34.208 236.85 36.48 232.978 36.48C228.658 36.48 224.85 33.376 224.85 28.064C224.85 23.04 228.562 19.776 232.594 19.776C237.458 19.776 240.37 22.88 240.37 27.936C240.37 28.544 240.306 29.184 240.306 29.248H229.042C229.138 31.328 230.898 32.832 233.01 32.832C234.994 32.832 236.082 31.84 236.594 30.432ZM247.663 42.208H243.151L246.863 34.016L240.175 20.256H244.943L249.135 29.472L253.007 20.256H257.551L247.663 42.208Z" fill="black"/>
</svg>
